<svg xmlns="http://www.w3.org/2000/svg" width="52" height="53" viewBox="0 0 52 53" preserveAspectRatio="xMidYMid meet">
  <path fill="#FFF" fill-rule="evenodd" d="M61.8297361,383.0173 C64.003338,384.980686 65.6503671,389.264692 64.9958636,393.681256 C63.9028059,401.057166 56.8413572,406.042444 49.2586679,404.731167 C46.4025566,404.237083 42.3627381,401.908323 40.3460271,398.57871 C38.5309871,395.582059 38.3605131,393.546432 38.3445334,391.68581 L38.3445334,391.68581 L38.3428849,391.071007 L49.9160871,391.066082 C52.9183041,390.974798 55.7552526,389.639352 56.8413572,388.95355 C58.9628323,387.613981 61.1695602,384.517339 61.8297361,383.0173 Z M31.4640829,352.26879 C40.4585147,350.682829 49.0585805,356.270862 51.3939881,364.922464 L51.3939881,364.922464 L36.4663353,364.922464 L36.4663353,386.893019 C27.3490294,387.931132 18.8837548,381.700688 17.2687903,372.541769 C15.5904836,363.023619 21.9459326,353.947097 31.4640829,352.26879 Z M60.385413,364.235185 C62.4852808,364.235185 64.601753,365.299916 66.011064,366.866044 C67.3969088,368.406096 68.1714653,370.474554 68.1714653,372.208809 C68.1714653,374.253167 67.391756,375.700926 66.7289589,376.652666 C66.1118397,377.538814 64.6051395,379.243661 62.7796187,379.818356 C62.7796187,377.490068 63.2010054,374.997718 61.0380823,371.124996 C59.7411451,368.802826 56.9653724,366.912254 55.7593284,366.159617 L55.7593284,366.159617 L55.280758,365.8693 C56.4250547,365.026901 57.8483036,364.235185 60.385413,364.235185 Z" transform="translate(-17 -352)"/>
</svg>
